<svg width="287" height="56" viewBox="0 0 287 56" fill="none" xmlns="http://www.w3.org/2000/svg">
<path d="M38.6667 15.5416L14.8333 39.375L4 28.5416M47.3333 24.2083L31.0833 40.4583L27.8333 37.2083" stroke="#4B9941" stroke-width="3" stroke-linecap="round" stroke-linejoin="round"/>
<path d="M72.33 21.51C72.33 20.65 72.96 20.22 74.22 20.22C74.76 20.22 75.79 20.24 77.31 20.28C78.99 20.36 80.26 20.4 81.12 20.4C81.82 20.4 82.67 20.36 83.67 20.28C84.35 20.24 84.78 20.22 84.96 20.22C86.06 20.26 86.99 20.46 87.75 20.82C87.97 20.92 88.15 21.04 88.29 21.18C88.43 21.32 88.5 21.55 88.5 21.87C88.5 22.31 88.36 22.69 88.08 23.01C87.8 23.31 87.46 23.46 87.06 23.46C86.62 23.46 85.98 23.4 85.14 23.28C84.4 23.14 83.75 23.07 83.19 23.07C82.65 23.07 82.24 23.08 81.96 23.1C81.9 23.76 81.87 25.34 81.87 27.84C81.87 30.82 81.96 33.84 82.14 36.9L82.2 37.77C82.2 38.59 81.73 39 80.79 39C80.05 39 79.55 38.83 79.29 38.49C79.03 38.13 78.9 37.59 78.9 36.87C78.9 35.45 78.86 33.68 78.78 31.56C78.7 29.8 78.66 28.55 78.66 27.81C78.66 27.31 78.72 25.78 78.84 23.22L75.33 23.25C74.21 23.25 73.43 23.15 72.99 22.95C72.55 22.73 72.33 22.25 72.33 21.51ZM101.097 37.56C101.097 38 100.857 38.37 100.377 38.67C99.9174 38.97 99.4874 39.12 99.0874 39.12C98.3274 39.12 97.7174 39.03 97.2574 38.85C96.8174 38.65 96.4074 38.29 96.0274 37.77C95.5074 38.23 94.7974 38.58 93.8974 38.82C92.9974 39.04 92.1674 39.15 91.4074 39.15C90.1674 39.15 89.1474 38.82 88.3474 38.16C87.5474 37.48 87.1474 36.49 87.1474 35.19C87.1474 34.63 87.2974 34.12 87.5974 33.66C87.8974 33.18 88.3074 32.76 88.8274 32.4C89.4074 32.02 90.0674 31.73 90.8074 31.53C91.5474 31.31 92.3174 31.2 93.1174 31.2C93.5374 31.2 94.0374 31.28 94.6174 31.44C95.1974 31.6 95.6474 31.77 95.9674 31.95V31.47C95.9674 30.39 95.7074 29.65 95.1874 29.25C94.6674 28.83 93.8274 28.62 92.6674 28.62C92.3274 28.62 91.9874 28.69 91.6474 28.83C91.3274 28.97 90.9574 29.16 90.5374 29.4C89.9774 29.7 89.4474 29.85 88.9474 29.85C88.7674 29.85 88.5974 29.73 88.4374 29.49C88.2774 29.23 88.1974 29 88.1974 28.8C88.1974 28.22 88.4674 27.72 89.0074 27.3C89.5674 26.88 90.2274 26.57 90.9874 26.37C91.7474 26.15 92.4274 26.04 93.0274 26.04C93.6274 26.04 94.3174 26.16 95.0974 26.4C95.8774 26.62 96.5174 26.93 97.0174 27.33C97.6174 27.85 98.0774 28.46 98.3974 29.16C98.7374 29.84 98.9074 30.59 98.9074 31.41C98.9074 31.67 98.8874 32.06 98.8474 32.58C98.8074 33.14 98.7874 33.62 98.7874 34.02C98.7874 34.2 98.7674 34.47 98.7274 34.83C98.6874 35.27 98.6674 35.62 98.6674 35.88C98.6674 36.12 98.7574 36.33 98.9374 36.51C99.1174 36.67 99.3274 36.75 99.5674 36.75L100.407 36.72C100.627 36.72 100.797 36.8 100.917 36.96C101.037 37.12 101.097 37.32 101.097 37.56ZM91.4374 36.78C92.2974 36.78 93.0174 36.69 93.5974 36.51C94.1774 36.33 94.8774 36 95.6974 35.52C95.7774 35.18 95.8274 34.73 95.8474 34.17C94.7474 33.65 93.8374 33.39 93.1174 33.39C92.2974 33.39 91.5674 33.54 90.9274 33.84C90.2874 34.14 89.9674 34.67 89.9674 35.43C89.9674 35.81 90.1274 36.13 90.4474 36.39C90.7674 36.65 91.0974 36.78 91.4374 36.78ZM111.492 32.25C111.652 32.35 111.962 32.54 112.422 32.82C112.902 33.08 113.222 33.39 113.382 33.75C113.542 34.11 113.622 34.61 113.622 35.25C113.622 35.97 113.412 36.61 112.992 37.17C112.572 37.71 112.032 38.13 111.372 38.43C110.892 38.65 110.302 38.82 109.602 38.94C108.922 39.06 108.382 39.12 107.982 39.12C107.582 39.12 107.062 39.06 106.422 38.94C105.802 38.82 105.372 38.71 105.132 38.61C104.512 38.25 103.972 37.81 103.512 37.29C103.072 36.77 102.852 36.24 102.852 35.7C102.852 35.3 102.982 34.99 103.242 34.77C103.502 34.53 103.842 34.41 104.262 34.41C104.462 34.41 104.672 34.49 104.892 34.65C105.112 34.79 105.262 34.94 105.342 35.1C105.562 35.62 105.932 36.01 106.452 36.27C106.972 36.53 107.502 36.66 108.042 36.66C108.742 36.66 109.392 36.55 109.992 36.33C110.592 36.09 110.892 35.77 110.892 35.37C110.892 35.19 110.842 35.05 110.742 34.95C110.662 34.83 110.542 34.71 110.382 34.59C110.102 34.39 109.682 34.23 109.122 34.11C108.562 33.97 108.202 33.88 108.042 33.84C107.222 33.66 106.422 33.39 105.642 33.03C104.862 32.65 104.242 32.2 103.782 31.68C103.322 31.16 103.092 30.49 103.092 29.67C103.092 29.13 103.292 28.57 103.692 27.99C104.092 27.39 104.542 26.97 105.042 26.73C105.402 26.59 106.002 26.44 106.842 26.28C107.702 26.12 108.282 26.04 108.582 26.04C109.042 26.04 109.542 26.09 110.082 26.19C110.622 26.27 111.032 26.41 111.312 26.61C111.852 26.93 112.292 27.27 112.632 27.63C112.972 27.97 113.142 28.36 113.142 28.8C113.142 29.02 113.092 29.26 112.992 29.52C112.892 29.76 112.772 29.91 112.632 29.97C112.332 30.11 111.982 30.18 111.582 30.18C111.402 30.18 111.252 30.13 111.132 30.03C111.032 29.93 110.892 29.77 110.712 29.55C110.492 29.21 110.282 29.01 110.082 28.95C109.842 28.89 109.492 28.82 109.032 28.74C108.572 28.64 108.262 28.59 108.102 28.59C107.642 28.59 107.162 28.72 106.662 28.98C106.182 29.24 105.942 29.54 105.942 29.88C105.942 30.06 106.012 30.2 106.152 30.3C106.312 30.4 106.472 30.49 106.632 30.57C106.812 30.65 106.932 30.7 106.992 30.72C107.412 30.92 107.872 31.09 108.372 31.23C108.892 31.37 109.212 31.46 109.332 31.5C110.412 31.76 111.132 32.01 111.492 32.25ZM128.481 36.27C128.821 36.53 129.051 36.78 129.171 37.02C129.291 37.26 129.351 37.56 129.351 37.92C129.351 38.22 129.191 38.5 128.871 38.76C128.571 39 128.291 39.12 128.031 39.12C127.811 39.12 127.551 39.05 127.251 38.91C126.951 38.77 126.721 38.61 126.561 38.43C126.341 38.25 125.911 37.81 125.271 37.11C124.651 36.41 124.191 35.86 123.891 35.46C123.171 34.56 122.811 34.11 122.811 34.11L121.761 32.82L119.841 34.38L119.961 37.65C119.961 38.19 119.821 38.57 119.541 38.79C119.281 39.01 119.021 39.12 118.761 39.12C118.381 39.12 118.041 39.05 117.741 38.91C117.461 38.77 117.291 38.61 117.231 38.43C117.011 37.63 116.901 36.58 116.901 35.28C116.901 32.84 116.941 30.89 117.021 29.43C117.101 27.61 117.141 25.89 117.141 24.27C117.141 23.77 117.081 23.08 116.961 22.2C116.941 22.02 116.911 21.73 116.871 21.33C116.831 20.93 116.811 20.57 116.811 20.25C116.811 19.79 116.961 19.43 117.261 19.17C117.581 18.91 117.991 18.78 118.491 18.78C118.891 18.78 119.211 18.91 119.451 19.17C119.711 19.41 119.841 19.75 119.841 20.19C119.841 20.85 119.861 21.72 119.901 22.8C119.941 23.88 119.961 24.67 119.961 25.17C119.961 25.79 119.941 26.62 119.901 27.66C119.861 28.22 119.841 28.64 119.841 28.92C119.841 29.8 119.851 30.53 119.871 31.11C120.591 30.37 121.551 29.51 122.751 28.53C123.971 27.53 124.921 26.83 125.601 26.43C126.361 25.97 126.821 25.74 126.981 25.74C127.401 25.74 127.761 25.83 128.061 26.01C128.361 26.19 128.511 26.46 128.511 26.82C128.511 27.18 128.461 27.46 128.361 27.66C128.261 27.84 128.081 28.03 127.821 28.23L123.951 31.05C124.811 32.11 125.701 33.19 126.621 34.29C127.541 35.37 128.161 36.03 128.481 36.27ZM154.203 36.18C154.503 36.18 154.743 36.31 154.923 36.57C155.123 36.83 155.223 37.11 155.223 37.41C155.223 37.93 155.023 38.33 154.623 38.61C154.243 38.87 153.743 39 153.123 39C152.203 39 151.463 38.84 150.903 38.52C150.343 38.2 149.843 37.6 149.403 36.72C149.263 36.4 149.093 35.88 148.893 35.16C148.713 34.44 148.523 33.87 148.323 33.45C148.143 33.01 147.833 32.64 147.393 32.34C146.973 32.04 146.393 31.88 145.653 31.86L144.993 31.89C144.313 31.93 143.803 31.95 143.463 31.95C143.063 31.95 142.683 31.92 142.323 31.86C142.363 34.5 142.383 36.52 142.383 37.92C142.383 38.28 142.203 38.58 141.843 38.82C141.503 39.06 141.113 39.18 140.673 39.18C140.153 39.18 139.743 38.98 139.443 38.58C139.203 38.1 139.083 37.39 139.083 36.45C139.083 36.13 139.103 35.67 139.143 35.07L139.173 33.75C139.173 32.53 139.223 31.22 139.323 29.82C139.403 28.22 139.443 27.05 139.443 26.31C139.443 25.69 139.383 24.86 139.263 23.82C139.243 23.62 139.213 23.3 139.173 22.86C139.133 22.4 139.113 21.99 139.113 21.63C139.113 21.37 139.223 21.13 139.443 20.91C139.663 20.69 139.883 20.55 140.103 20.49C141.743 20.23 143.363 20.1 144.963 20.1C147.563 20.1 149.693 20.59 151.353 21.57C153.013 22.55 153.843 24.05 153.843 26.07C153.843 26.67 153.683 27.3 153.363 27.96C153.063 28.6 152.683 29.1 152.223 29.46C151.443 30.14 150.603 30.58 149.703 30.78C149.743 30.82 149.963 31.02 150.363 31.38C150.763 31.74 151.033 32.12 151.173 32.52L151.563 33.72C151.903 34.7 152.173 35.38 152.373 35.76C152.573 36.12 152.833 36.3 153.153 36.3C153.453 36.3 153.633 36.28 153.693 36.24C153.773 36.2 153.943 36.18 154.203 36.18ZM142.293 29.31C142.893 29.35 143.313 29.37 143.553 29.37C143.913 29.37 144.413 29.35 145.053 29.31L146.463 29.28C147.083 29.28 147.723 29.14 148.383 28.86C149.043 28.58 149.593 28.19 150.033 27.69C150.473 27.17 150.693 26.59 150.693 25.95C150.693 24.81 150.233 23.98 149.313 23.46C148.393 22.94 146.963 22.68 145.023 22.68C144.283 22.68 143.413 22.78 142.413 22.98C142.453 23.7 142.473 24.22 142.473 24.54C142.473 24.92 142.453 25.49 142.413 26.25L142.383 27.12C142.323 27.96 142.293 28.69 142.293 29.31ZM156.786 32.13C156.786 30.91 157.056 29.9 157.596 29.1C158.136 28.28 158.886 27.51 159.846 26.79C160.126 26.59 160.596 26.42 161.256 26.28C161.916 26.12 162.496 26.04 162.996 26.04C163.596 26.04 164.226 26.17 164.886 26.43C165.566 26.67 166.116 26.95 166.536 27.27C167.276 27.81 167.786 28.44 168.066 29.16C168.346 29.86 168.486 30.7 168.486 31.68C168.486 32.1 168.246 32.51 167.766 32.91C167.306 33.29 166.806 33.48 166.266 33.48L165.126 33.45C164.546 33.45 163.716 33.47 162.636 33.51L162.006 33.54C161.566 33.58 161.236 33.6 161.016 33.6C160.696 33.6 160.256 33.56 159.696 33.48C159.776 34.42 160.126 35.16 160.746 35.7C161.366 36.22 162.036 36.48 162.756 36.48C164.016 36.48 164.896 36.23 165.396 35.73C165.816 35.43 166.096 35.24 166.236 35.16C166.376 35.08 166.596 35.04 166.896 35.04C167.216 35.04 167.496 35.19 167.736 35.49C167.976 35.79 168.096 36.09 168.096 36.39C168.096 36.73 167.886 37.08 167.466 37.44C167.066 37.78 166.516 38.14 165.816 38.52C165.436 38.68 164.916 38.82 164.256 38.94C163.596 39.06 163.046 39.12 162.606 39.12C161.906 39.12 161.126 38.92 160.266 38.52C159.406 38.1 158.766 37.64 158.346 37.14C157.926 36.64 157.556 35.93 157.236 35.01C156.936 34.09 156.786 33.13 156.786 32.13ZM162.756 31.32C164.176 31.32 165.216 31.27 165.876 31.17C165.836 30.59 165.656 30.12 165.336 29.76C165.016 29.38 164.576 29.06 164.016 28.8C163.836 28.72 163.676 28.66 163.536 28.62C163.396 28.58 163.236 28.56 163.056 28.56C162.136 28.56 161.356 28.81 160.716 29.31C160.096 29.81 159.726 30.45 159.606 31.23C160.606 31.29 161.656 31.32 162.756 31.32ZM189.474 33.72L189.594 31.41C189.594 30.57 189.494 29.95 189.294 29.55C189.114 29.15 188.694 28.95 188.034 28.95C186.774 28.95 185.824 29.66 185.184 31.08C184.544 32.48 184.224 34.53 184.224 37.23C184.224 37.35 184.224 37.6 184.224 37.98C184.244 38.34 184.184 38.62 184.044 38.82C183.924 39.02 183.704 39.12 183.384 39.12C182.584 39.12 182.044 38.9 181.764 38.46C181.484 38.02 181.344 37.37 181.344 36.51C181.344 36.07 181.404 35.17 181.524 33.81C181.624 32.85 181.674 32.18 181.674 31.8C181.674 30.8 181.524 30.07 181.224 29.61C180.924 29.15 180.404 28.92 179.664 28.92C178.804 28.92 178.094 29.35 177.534 30.21C176.974 31.07 176.564 32.14 176.304 33.42C176.044 34.68 175.914 35.93 175.914 37.17C175.914 37.75 175.814 38.22 175.614 38.58C175.434 38.94 175.084 39.12 174.564 39.12C174.184 39.12 173.804 39.02 173.424 38.82C173.044 38.6 172.854 38.31 172.854 37.95C172.854 37.57 172.894 37.19 172.974 36.81C173.074 36.19 173.154 35.28 173.214 34.08C173.274 32.88 173.304 31.75 173.304 30.69C173.304 30.21 173.184 29.75 172.944 29.31C172.724 28.85 172.454 28.62 172.134 28.62C172.054 28.62 171.904 28.66 171.684 28.74C171.484 28.82 171.334 28.86 171.234 28.86C170.974 28.86 170.734 28.74 170.514 28.5C170.314 28.26 170.214 28.06 170.214 27.9C170.214 27.4 170.454 26.98 170.934 26.64C171.434 26.28 171.954 26.1 172.494 26.1C173.234 26.1 173.874 26.35 174.414 26.85C174.974 27.35 175.394 28.02 175.674 28.86C176.154 28 176.714 27.33 177.354 26.85C178.014 26.35 178.814 26.1 179.754 26.1C181.474 26.1 182.724 26.87 183.504 28.41C183.964 27.67 184.674 27.1 185.634 26.7C186.614 26.3 187.574 26.1 188.514 26.1C189.194 26.1 189.844 26.31 190.464 26.73C191.084 27.13 191.574 27.67 191.934 28.35C192.314 29.01 192.504 29.7 192.504 30.42C192.504 30.88 192.454 31.89 192.354 33.45C192.334 33.71 192.314 34 192.294 34.32C192.274 34.62 192.264 34.94 192.264 35.28C192.264 35.7 192.364 36.04 192.564 36.3C192.784 36.56 193.064 36.72 193.404 36.78C194.084 36.94 194.424 37.22 194.424 37.62C194.424 38.08 194.214 38.45 193.794 38.73C193.374 38.99 192.904 39.12 192.384 39.12C191.404 39.12 190.654 38.84 190.134 38.28C189.634 37.7 189.384 36.87 189.384 35.79L189.474 33.72ZM196.338 32.22C196.338 31.5 196.468 30.83 196.728 30.21C196.988 29.57 197.368 28.91 197.868 28.23C198.368 27.55 199.058 27.02 199.938 26.64C200.818 26.24 201.778 26.04 202.818 26.04C203.618 26.04 204.388 26.21 205.128 26.55C205.888 26.87 206.568 27.27 207.168 27.75C207.248 27.89 207.388 28.15 207.588 28.53C207.788 28.89 207.928 29.22 208.008 29.52C208.108 29.82 208.158 30.13 208.158 30.45C208.158 31.79 207.668 32.69 206.688 33.15C205.708 33.59 204.468 33.81 202.968 33.81C201.468 33.81 200.248 33.71 199.308 33.51C199.348 33.89 199.448 34.27 199.608 34.65C199.768 35.03 199.958 35.32 200.178 35.52C200.578 35.9 200.968 36.15 201.348 36.27C201.748 36.37 202.278 36.42 202.938 36.42C203.938 36.42 204.718 36.23 205.278 35.85C205.798 35.51 206.198 35.34 206.478 35.34C206.858 35.34 207.148 35.46 207.348 35.7C207.548 35.92 207.648 36.21 207.648 36.57C207.648 37.33 207.158 37.95 206.178 38.43C205.218 38.91 204.128 39.15 202.908 39.15C201.948 39.15 200.998 38.98 200.058 38.64C199.118 38.3 198.368 37.82 197.808 37.2C197.428 36.56 197.088 35.78 196.788 34.86C196.488 33.94 196.338 33.06 196.338 32.22ZM202.938 28.5C202.498 28.5 202.038 28.58 201.558 28.74C201.098 28.88 200.738 29.1 200.478 29.4C200.158 29.74 199.918 30.05 199.758 30.33C199.618 30.61 199.528 30.96 199.488 31.38C199.708 31.38 199.918 31.39 200.118 31.41C200.318 31.43 200.508 31.45 200.688 31.47C201.568 31.55 202.228 31.59 202.668 31.59C203.548 31.59 204.218 31.46 204.678 31.2C205.158 30.94 205.398 30.59 205.398 30.15C205.398 29.73 205.128 29.35 204.588 29.01C204.068 28.67 203.518 28.5 202.938 28.5ZM229.981 37.95C229.681 37.39 229.491 36.77 229.411 36.09C229.331 35.39 229.291 34.43 229.291 33.21C229.291 32.05 229.131 31.04 228.811 30.18C228.491 29.32 227.831 28.89 226.831 28.89C226.451 28.89 226.071 29.01 225.691 29.25C225.331 29.47 225.061 29.75 224.881 30.09C224.601 30.63 224.411 31.22 224.311 31.86C224.211 32.48 224.161 33.2 224.161 34.02C224.161 34.54 224.191 35.07 224.251 35.61C224.251 35.77 224.261 36.03 224.281 36.39C224.321 36.73 224.341 37.04 224.341 37.32C224.341 38.52 223.921 39.12 223.081 39.12C221.981 39.12 221.401 38.54 221.341 37.38C221.341 36.56 221.351 36.12 221.371 36.06V34.77C221.371 34.05 221.341 33.35 221.281 32.67C221.221 31.99 221.151 31.48 221.071 31.14C220.891 30.48 220.651 29.97 220.351 29.61C220.071 29.25 219.621 29.07 219.001 29.07C218.121 29.07 217.411 29.45 216.871 30.21C216.491 30.81 216.241 31.54 216.121 32.4C216.001 33.5 215.911 34.37 215.851 35.01C215.811 35.63 215.791 36.35 215.791 37.17C215.791 37.75 215.691 38.22 215.491 38.58C215.311 38.94 214.961 39.12 214.441 39.12C214.061 39.12 213.661 39.02 213.241 38.82C212.841 38.6 212.641 38.31 212.641 37.95C212.641 37.57 212.681 37.19 212.761 36.81C212.941 35.67 213.031 33.63 213.031 30.69C213.031 30.21 212.911 29.75 212.671 29.31C212.451 28.85 212.181 28.62 211.861 28.62C211.781 28.62 211.631 28.66 211.411 28.74C211.211 28.82 211.061 28.86 210.961 28.86C210.701 28.86 210.461 28.74 210.241 28.5C210.041 28.26 209.941 28.06 209.941 27.9C209.941 27.4 210.181 26.98 210.661 26.64C211.161 26.28 211.681 26.1 212.221 26.1C212.961 26.1 213.591 26.33 214.111 26.79C214.631 27.25 215.031 27.89 215.311 28.71C215.771 27.91 216.391 27.27 217.171 26.79C217.951 26.29 218.821 26.04 219.781 26.04C220.381 26.04 220.861 26.12 221.221 26.28C221.601 26.42 221.911 26.63 222.151 26.91C222.391 27.17 222.701 27.57 223.081 28.11C223.581 27.47 224.221 26.97 225.001 26.61C225.801 26.25 226.621 26.07 227.461 26.07C228.461 26.07 229.361 26.48 230.161 27.3C230.961 28.1 231.501 29.03 231.781 30.09C231.921 30.63 231.991 31.67 231.991 33.21L232.111 34.95C232.211 35.99 232.551 36.62 233.131 36.84C233.811 37.04 234.151 37.25 234.151 37.47C234.151 37.95 234.031 38.3 233.791 38.52C233.611 38.64 233.361 38.77 233.041 38.91C232.721 39.05 232.471 39.12 232.291 39.12C231.211 39.12 230.441 38.73 229.981 37.95ZM236.996 33.6C236.996 32.48 237.006 31.63 237.026 31.05L237.056 28.2C237.056 27.04 237.026 25.77 236.966 24.39C236.946 23.97 236.876 23.39 236.756 22.65C236.596 21.53 236.516 20.69 236.516 20.13C236.516 19.21 236.976 18.75 237.896 18.75C238.476 18.75 238.886 18.91 239.126 19.23C239.386 19.53 239.566 20.01 239.666 20.67C239.866 22.05 239.966 23.67 239.966 25.53C239.966 26.09 239.946 26.93 239.906 28.05C240.286 27.45 240.776 26.98 241.376 26.64C241.996 26.3 242.606 26.13 243.206 26.13C244.946 26.13 246.446 26.85 247.706 28.29C248.046 28.79 248.346 29.39 248.606 30.09C248.886 30.77 249.026 31.36 249.026 31.86C249.026 32.74 248.926 33.55 248.726 34.29C248.546 35.03 248.216 35.75 247.736 36.45C247.256 37.15 246.646 37.72 245.906 38.16C245.186 38.6 244.346 38.82 243.386 38.82C242.546 38.82 241.786 38.65 241.106 38.31C240.446 37.97 239.916 37.52 239.516 36.96C239.416 37.46 239.196 37.96 238.856 38.46C238.516 38.94 238.126 39.18 237.686 39.18C237.326 39.18 237.026 39.09 236.786 38.91C236.546 38.71 236.426 38.42 236.426 38.04C236.426 37.76 236.486 37.41 236.606 36.99C236.726 36.41 236.816 35.88 236.876 35.4C236.956 34.9 236.996 34.3 236.996 33.6ZM242.636 36.33C243.616 36.33 244.436 35.99 245.096 35.31C245.756 34.61 246.086 33.67 246.086 32.49C246.086 31.41 245.796 30.48 245.216 29.7C245.016 29.44 244.726 29.23 244.346 29.07C243.986 28.91 243.626 28.83 243.266 28.83C242.426 28.83 241.716 29.08 241.136 29.58C240.556 30.06 240.226 30.73 240.146 31.59C240.066 32.75 240.026 33.75 240.026 34.59C240.266 35.05 240.626 35.46 241.106 35.82C241.606 36.16 242.116 36.33 242.636 36.33ZM251.621 32.64C251.621 31.88 251.761 31.12 252.041 30.36C252.321 29.58 252.691 28.87 253.151 28.23C253.611 27.59 254.341 27.07 255.341 26.67C256.341 26.25 257.231 26.04 258.011 26.04C258.811 26.04 259.621 26.15 260.441 26.37C261.281 26.59 261.861 26.93 262.181 27.39C262.921 28.43 263.291 29.45 263.291 30.45C263.291 30.99 263.171 31.45 262.931 31.83C262.711 32.21 262.391 32.62 261.971 33.06C261.631 33.42 261.091 33.66 260.351 33.78C259.631 33.9 258.911 33.96 258.191 33.96C257.731 33.96 257.171 33.92 256.511 33.84C255.851 33.74 255.211 33.62 254.591 33.48C254.631 33.88 254.731 34.27 254.891 34.65C255.051 35.03 255.241 35.32 255.461 35.52C255.861 35.9 256.271 36.14 256.691 36.24C257.131 36.34 257.691 36.39 258.371 36.39C259.091 36.39 259.761 36.27 260.381 36.03C260.881 35.85 261.291 35.76 261.611 35.76C261.991 35.76 262.281 35.88 262.481 36.12C262.681 36.34 262.781 36.63 262.781 36.99C262.781 37.49 262.491 37.9 261.911 38.22C261.331 38.54 260.661 38.78 259.901 38.94C259.161 39.08 258.561 39.15 258.101 39.15C257.161 39.15 256.251 38.98 255.371 38.64C254.491 38.3 253.761 37.82 253.181 37.2C252.701 36.64 252.321 35.97 252.041 35.19C251.761 34.39 251.621 33.54 251.621 32.64ZM258.161 28.59C257.721 28.59 257.281 28.68 256.841 28.86C256.401 29.02 256.041 29.25 255.761 29.55C255.401 29.93 255.151 30.24 255.011 30.48C254.891 30.7 254.811 31.01 254.771 31.41C255.271 31.57 256.311 31.65 257.891 31.65C258.751 31.65 259.411 31.52 259.871 31.26C260.351 31 260.591 30.66 260.591 30.24C260.591 29.82 260.331 29.44 259.811 29.1C259.291 28.76 258.741 28.59 258.161 28.59ZM270.328 37.8C270.288 38.14 270.148 38.44 269.908 38.7C269.668 38.96 269.358 39.09 268.978 39.09C268.378 39.09 267.938 38.98 267.658 38.76C267.378 38.52 267.238 38.09 267.238 37.47C267.238 36.63 267.288 35.71 267.388 34.71C267.468 33.55 267.508 32.66 267.508 32.04C267.508 31.72 267.488 31.32 267.448 30.84C267.408 30.4 267.388 30.07 267.388 29.85C267.328 29.51 267.188 29.24 266.968 29.04C266.768 28.84 266.448 28.67 266.008 28.53C265.828 28.45 265.678 28.32 265.558 28.14C265.438 27.94 265.378 27.76 265.378 27.6C265.378 27.14 265.558 26.79 265.918 26.55C266.278 26.31 266.718 26.19 267.238 26.19C267.818 26.19 268.318 26.39 268.738 26.79C269.158 27.19 269.478 27.69 269.698 28.29C270.158 27.63 270.718 27.1 271.378 26.7C272.058 26.3 272.718 26.1 273.358 26.1C274.178 26.1 274.868 26.24 275.428 26.52C276.008 26.78 276.298 27.24 276.298 27.9C276.298 28.28 276.128 28.68 275.788 29.1C275.468 29.5 275.138 29.7 274.798 29.7C274.538 29.7 274.228 29.58 273.868 29.34C273.728 29.24 273.568 29.16 273.388 29.1C273.228 29.02 273.058 28.98 272.878 28.98C272.558 28.98 272.258 29.03 271.978 29.13C271.698 29.23 271.508 29.35 271.408 29.49C271.088 29.99 270.848 30.44 270.688 30.84C270.548 31.24 270.478 31.67 270.478 32.13C270.478 32.47 270.468 32.74 270.448 32.94L270.418 34.65L270.448 35.79C270.448 36.63 270.408 37.3 270.328 37.8Z" fill="#4B9941"/>
</svg>
